{"title":"Brazil [1985] DC BRRip XviD - CODY","uid":7182693,"size":1453895873,"categoryP":"video","categoryS":"movies","magnet":"?xt=urn:btih:3e3ca65dda7f195042e5d88a1a53262fd9e859a4&amp;dn=Brazil+%5B1985%5D+DC+BRRip+XviD+-+CODY&amp;tr=udp%3A%2F%2Ftracker.openbittorrent.com%3A80&amp;tr=udp%3A%2F%2Fopen.demonii.com%3A1337&amp;tr=udp%3A%2F%2Ftracker.coppersurfer.tk%3A6969&amp;tr=udp%3A%2F%2Fexodus.desync.com%3A6969","seeders":0,"leechers":1,"uploader":"CODYBOSS1969","files":5,"time":1334324992,"description":"General\nComplete name                            : Brazil [1985] DC BRRip XviD - CODY.avi\nFormat                                   : AVI\nFormat/Info                              : Audio Video Interleave\nFile size                                : 1.35 GiB\nDuration                                 : 2h 23mn\nOverall bit rate                         : 1 352 Kbps\nWriting application                      : VirtualDubMod 1.5.10.3 | www.virtualdub-fr.org || (build 2550/release)\nWriting library                          : VirtualDubMod build 2550/release\n\nVideo\nID                                       : 0\nFormat                                   : MPEG-4 Visual\nFormat profile                           : Advanced Simple@L5\nFormat settings, BVOP                    : 4\nFormat settings, QPel                    : No\nFormat settings, GMC                     : No warppoints\nFormat settings, Matrix                  : Default (H.263)\nCodec ID                                 : XVID\nCodec ID/Hint                            : XviD\nDuration                                 : 2h 23mn\nBit rate                                 : 1 215 Kbps\nWidth                                    : 720 pixels\nHeight                                   : 392 pixels\nDisplay aspect ratio                     : 16:9\nFrame rate                               : 23.976 fps\nColor space                              : YUV\nChroma subsampling                       : 4:2:0\nBit depth                                : 8 bits\nScan type                                : Progressive\nCompression mode                         : Lossy\nBits/(Pixel*Frame)                       : 0.180\nStream size                              : 1.22 GiB (90%)\nWriting library                          : XviD 1.2.1 (UTC 2008-12-04)\n\nAudio\nID                                       : 1\nFormat                                   : MPEG Audio\nFormat version                           : Version 1\nFormat profile                           : Layer 3\nCodec ID                                 : 55\nCodec ID/Hint                            : MP3\nDuration                                 : 2h 23mn\nBit rate mode                            : Constant\nBit rate                                 : 128 Kbps\nChannel(s)                               : 2 channels\nSampling rate                            : 48.0 KHz\nCompression mode                         : Lossy\nStream size                              : 131 MiB (9%)\nAlignment                                : Aligned on interleaves\nInterleave, duration                     : 42 ms (1.00 video frame)\nInterleave, preload duration             : 504 ms\nWriting library                          : L3.99r\nEncoding settings                        : -m s -V 4 -q 2 -lowpass 17 -b 128\n\n\n\n\nIMDB link:                                &lt;a href=&quot; http://www.imdb.com/title/tt0088846/&quot; rel=&quot;nofollow&quot; target=&quot;_NEW&quot;&gt; http://www.imdb.com/title/tt0088846/&lt;/a&gt;\n\n\n\n\nSubtitles included                       : Romanian\n\n\n\n\nPlease seed at least 1,5:1 . This way this torrent has a chance to survive !\n\n\n\n\nThanks . Enjoy !!!\n\n\n___________________\n\n*** Director's Cut available on Blu-Ray only with Audio 2.0\n\n\n\t\t","torrent":{"xt":"urn:btih:3e3ca65dda7f195042e5d88a1a53262fd9e859a4","amp;dn":"Brazil+%5B1985%5D+DC+BRRip+XviD+-+CODY","amp;tr":["udp%3A%2F%2Ftracker.openbittorrent.com%3A80","udp%3A%2F%2Fopen.demonii.com%3A1337","udp%3A%2F%2Ftracker.coppersurfer.tk%3A6969","udp%3A%2F%2Fexodus.desync.com%3A6969"],"infoHash":"3e3ca65dda7f195042e5d88a1a53262fd9e859a4","infoHashBuffer":{"type":"Buffer","data":[62,60,166,93,218,127,25,80,66,229,216,138,26,83,38,47,217,232,89,164]},"announce":[],"urlList":[]}}